<?xml version="1.0" standalone="no"?>
<!DOCTYPE svg PUBLIC "-//W3C//DTD SVG 20010904//EN"
 "http://www.w3.org/TR/2001/REC-SVG-20010904/DTD/svg10.dtd">
<svg version="1.0" xmlns="http://www.w3.org/2000/svg"
 width="1024.000000pt" height="1024.000000pt" viewBox="0 0 1024.000000 1024.000000"
 preserveAspectRatio="xMidYMid meet">

<g transform="translate(0.000000,1024.000000) scale(0.100000,-0.100000)"
fill="#000000" stroke="none">
<path d="M2451 9379 c-347 -45 -622 -292 -717 -646 -18 -66 -19 -192 -19
-3623 l0 -3555 23 -80 c96 -334 382 -576 725 -615 63 -8 923 -10 2717 -8
l2625 3 80 23 c94 26 201 75 276 126 126 84 247 234 307 377 66 161 62 -43 62
2841 l0 2613 -1278 1278 -1277 1277 -1730 -1 c-952 -1 -1759 -5 -1794 -10z
m4274 -1809 l1170 -1170 -1173 0 -1172 0 0 1170 c0 644 1 1170 3 1170 1 0 529
-526 1172 -1170z m105 -2875 l0 -425 -1710 0 -1710 0 0 425 0 425 1710 0 1710
0 0 -425z m0 -1710 l0 -425 -1710 0 -1710 0 0 425 0 425 1710 0 1710 0 0 -425z"/>
</g>
</svg>
